<svg width="28" height="23" viewBox="0 0 28 23" fill="none" xmlns="http://www.w3.org/2000/svg">
<g clip-path="url(#clip0_1063_311)">
<path d="M9.10007 15.625C8.99551 15.625 8.89095 15.64 8.7912 15.6718C8.2242 15.8527 7.62788 15.9688 7.00007 15.9688C6.37226 15.9688 5.77595 15.8527 5.20851 15.6718C5.10876 15.64 5.00463 15.625 4.90007 15.625C2.18495 15.625 -0.0143668 17.7941 7.06772e-05 20.4641C0.00619568 21.5925 0.950758 22.5 2.10007 22.5H11.9001C13.0494 22.5 13.9939 21.5925 14.0001 20.4641C14.0145 17.7941 11.8152 15.625 9.10007 15.625ZM7.00007 14.25C9.3197 14.25 11.2001 12.4032 11.2001 10.125C11.2001 7.8468 9.3197 6 7.00007 6C4.68045 6 2.80007 7.8468 2.80007 10.125C2.80007 12.4032 4.68045 14.25 7.00007 14.25ZM25.9001 0.5H9.10007C7.94201 0.5 7.00007 1.45605 7.00007 2.63082V4.625C8.0247 4.625 8.9732 4.91633 9.80007 5.38984V3.25H25.2001V15.625H22.4001V12.875H16.8001V15.625H13.4646C14.3002 16.3421 14.9136 17.2892 15.201 18.375H25.9001C27.0581 18.375 28.0001 17.4189 28.0001 16.2442V2.63082C28.0001 1.45605 27.0581 0.5 25.9001 0.5Z" fill="#012970"/>
</g>
<defs>
<clipPath id="clip0_1063_311">
<rect width="28" height="22" fill="white" transform="translate(0 0.5)"/>
</clipPath>
</defs>
</svg>
