<svg width="26" height="26" viewBox="0 0 26 26" fill="none" xmlns="http://www.w3.org/2000/svg">
<path d="M7.25829 23.075C7.05968 22.8764 6.96038 22.6236 6.96038 22.3167C6.96038 22.0097 7.05968 21.7569 7.25829 21.5583L12.4312 16.3583C12.8465 15.9431 13.3611 15.7354 13.975 15.7354C14.5888 15.7354 15.1034 15.9431 15.5187 16.3583L17.7666 18.6062L22.6145 13.7583C22.8312 13.5417 23.084 13.4333 23.3729 13.4333C23.6618 13.4333 23.9145 13.5417 24.1312 13.7583C24.3479 13.975 24.4562 14.2321 24.4562 14.5297C24.4562 14.8279 24.3479 15.0854 24.1312 15.3021L19.3104 20.15C18.8951 20.5653 18.3852 20.7729 17.7807 20.7729C17.1755 20.7729 16.6652 20.5653 16.25 20.15L13.975 17.875L8.77496 23.075C8.57635 23.2736 8.3279 23.3773 8.02963 23.3859C7.73207 23.3953 7.47496 23.2917 7.25829 23.075ZM4.33329 22.75C3.73746 22.75 3.22757 22.538 2.80363 22.1141C2.37896 21.6894 2.16663 21.1792 2.16663 20.5833V5.41667C2.16663 4.82083 2.37896 4.31058 2.80363 3.88592C3.22757 3.46197 3.73746 3.25 4.33329 3.25H19.5C20.0958 3.25 20.606 3.46197 21.0307 3.88592C21.4547 4.31058 21.6666 4.82083 21.6666 5.41667V9.75C21.6666 10.0569 21.5626 10.3141 21.3546 10.5213C21.1473 10.7293 20.8902 10.8333 20.5833 10.8333H4.33329V20.5833V22.75ZM4.33329 8.66667H19.5V5.41667H4.33329V8.66667Z" fill="#012970"/>
</svg>
