<svg width="25" height="25" viewBox="0 0 25 25" fill="none" xmlns="http://www.w3.org/2000/svg">
<path d="M18.4219 8.25C18.4219 6.6587 17.7897 5.13258 16.6645 4.00736C15.5393 2.88214 14.0132 2.25 12.4219 2.25C10.8306 2.25 9.30445 2.88214 8.17923 4.00736C7.05402 5.13258 6.42188 6.6587 6.42188 8.25C6.42188 15.25 3.42188 17.25 3.42188 17.25H21.4219C21.4219 17.25 18.4219 15.25 18.4219 8.25Z" stroke="black" stroke-width="2" stroke-linecap="round" stroke-linejoin="round"/>
<path d="M14.1519 21.25C13.9761 21.5531 13.7237 21.8047 13.4201 21.9795C13.1165 22.1544 12.7723 22.2465 12.4219 22.2465C12.0715 22.2465 11.7273 22.1544 11.4237 21.9795C11.1201 21.8047 10.8677 21.5531 10.6919 21.25" stroke="black" stroke-width="2" stroke-linecap="round" stroke-linejoin="round"/>
</svg>
