<?xml version="1.0" encoding="UTF-8"?>
<svg id="Layer_2" data-name="Layer 2" xmlns="http://www.w3.org/2000/svg" viewBox="0 0 787.92 781.25">
  <defs>
    <style>
      .cls-1 {
        fill: #f4f4f4;
      }

      .cls-2 {
        fill: #1d9bf0;
      }

      .cls-3 {
        fill: #5e5e60;
      }
    </style>
  </defs>
  <g id="Layer_1-2" data-name="Layer 1">
    <circle class="cls-3" cx="376.84" cy="376.84" r="376.84"/>
    <path class="cls-2" d="M617.93,381.68v-9.69c0-3.91,3.17-7.07,7.07-7.07h61.47c-6.12-160.77-134.31-289.9-294.68-297.57v75.67c0,3.91-3.17,7.07-7.07,7.07h-9.69c-3.91,0-7.07-3.17-7.07-7.07V67.05C204.76,71.67,73.4,202.12,67.2,364.92h70.34c3.91,0,7.07,3.17,7.07,7.07v9.69c0,3.91-3.17,7.07-7.07,7.07H67.2c6.2,162.8,137.57,293.25,300.77,297.88v-64.64c0-3.91,3.17-7.07,7.07-7.07h9.69c3.91,0,7.07,3.17,7.07,7.07v64.33c160.37-7.67,288.56-136.8,294.68-297.57h-61.47c-3.91,0-7.07-3.17-7.07-7.07Z"/>
    <path class="cls-1" d="M187.99,465.71s139.8-37.53,191.31-54.02l91.71,144.67s-50.97-189.94-60.24-208.78c0,0-18.76-9.33-35.98-.86-3.5,1.72-6.11,3.87-8.59,6.02l-178.21,112.97Z"/>
    <circle class="cls-3" cx="622.18" cy="615.51" r="165.74"/>
    <polygon class="cls-1" points="597.02 549.75 597.02 693.75 686.48 604.29 597.02 549.75"/>
  </g>
</svg>