<?xml version="1.0" encoding="UTF-8"?>
<svg id="Layer_2" data-name="Layer 2" xmlns="http://www.w3.org/2000/svg" viewBox="0 0 857.89 888.37">
  <defs>
    <style>
      .cls-1 {
        fill: #fff;
      }

      .cls-2 {
        fill: #1d9bf0;
      }

      .cls-3 {
        fill: none;
        stroke: #49403f;
        stroke-miterlimit: 10;
        stroke-width: 9px;
      }

      .cls-4 {
        fill: #595959;
      }
    </style>
  </defs>
  <g id="Layer_1-2" data-name="Layer 1">
    <circle class="cls-2" cx="305.59" cy="276.87" r="58.98"/>
    <polygon class="cls-2" points="851.27 883.87 6.55 883.87 38.92 799.79 83.36 684.42 105.8 626.12 152.05 506.03 701.44 506.03 711.85 532.25 735.48 591.86 755.97 643.55 788.4 725.34 851.27 883.87"/>
    <polygon class="cls-1" points="419.14 728.61 776.81 883.87 528.25 883.87 301.89 769.87 67.37 883.87 6.55 883.87 38.92 799.79 175.94 743.81 83.36 684.42 105.8 626.12 262.79 711.23 430.04 641.76 158.54 506.03 326.4 506.03 519.03 611.35 711.85 532.25 735.48 591.86 692.74 617.86 755.97 643.55 788.4 725.34 595.04 646.09 419.14 728.61"/>
    <polygon class="cls-3" points="152.05 506.03 701.44 506.03 851.27 883.87 6.55 883.87 152.05 506.03"/>
    <path class="cls-4" d="M246.61,335.85S58.67,417,107.53,464.23s61.89-65.15,97.72-53.74c21.17,11.4-1.63,87.95-1.63,87.95,0,0,3.26,83.06-179.15,86.32,0,0-17.91-8.14-17.91,27.69s146.58,60.26,214.98-61.89c0,0,17.91-24.43,35.83,6.51,17.91,30.94,47.6,42.03,48.23,84.53,.63,42.5,0,76.7,0,76.7,0,0,3.89,14.66,26.69,14.66s32.29-14.66,32.29-14.66c0,0,19.26-86.32,0-120.52s-81.15-78.17-94.18-102.6-4.89-99.35,14.66-89.57c19.54,9.77,73.29,45.6,143.32,30.94,0,0,14.66,9.77,14.66-29.32s-16.29-29.32-16.29-29.32c0,0-78.17,8.14-105.86-6.51-27.69-14.66-24.76-28.76-74.27-35.55Z"/>
    <path class="cls-4" d="M742.73,320.95c30.78-34.08,49.53-79.23,49.53-128.77C792.26,86.04,706.22,0,600.08,0s-192.18,86.04-192.18,192.18c0,49.54,18.75,94.69,49.53,128.77l142.65,232.79,142.65-232.79Z"/>
    <circle class="cls-2" cx="600.08" cy="175.17" r="101.7"/>
  </g>
</svg>