<?xml version="1.0" encoding="UTF-8"?>
<svg id="Layer_2" data-name="Layer 2" xmlns="http://www.w3.org/2000/svg" viewBox="0 0 611.04 578.6">
  <defs>
    <style>
      .cls-1 {
        fill: #f4f4f4;
      }

      .cls-2 {
        fill: #fff;
      }

      .cls-3 {
        fill: #1d9bf0;
      }

      .cls-4 {
        fill: #49403f;
      }

      .cls-5 {
        fill: none;
        stroke: #49403f;
        stroke-miterlimit: 10;
        stroke-width: 8px;
      }
    </style>
  </defs>
  <g id="Layer_1-2" data-name="Layer 1">
    <g>
      <path class="cls-2" d="M486.3,345.48c3.72-1.14,7.39-2.4,11-3.78v225.9H11V81.3H285.86c-2.29,3.58-4.47,7.25-6.5,11-8.02,14.74-13.98,30.76-17.53,47.68-1.46,6.41-2.42,13.07-3.03,19.85-.61,5.57-.85,11.14-.85,16.84,0,37.17,11.51,71.68,31.24,100.13,31.73,46.14,85.01,76.41,145.31,76.41,18.02,0,35.43-2.7,51.8-7.73Z"/>
      <path class="cls-2" d="M486.3,313.51c-16.38,6.21-33.89,9.43-51.8,9.43-48.12,0-93.11-23.66-120.43-63.39-16.91-24.37-25.85-53.04-25.85-82.88,0-4.98,.22-9.41,.73-14.14,.52-5.77,1.32-11.11,2.51-16.35,4.1-19.58,12.15-37.86,23.44-53.88,2.68-3.8,5.54-7.47,8.57-11h-19.28c-2.61,3.56-5.07,7.23-7.37,11-9.51,15.55-16.4,32.76-20.23,51.02-1.23,5.42-2.14,11.43-2.74,18.15-.51,4.7-.76,9.68-.76,15.2,0,32.95,9.87,64.6,28.57,91.56,30.08,43.73,79.73,69.84,132.84,69.84,17.81,0,35.27-2.89,51.8-8.49,3.72-1.26,7.39-2.66,11-4.2v-16.6c-3.6,1.74-7.27,3.31-11,4.73Z"/>
      <path class="cls-4" d="M497.3,308.78c-3.6,1.74-7.27,3.31-11,4.73v16.07c3.72-1.26,7.39-2.66,11-4.2,3.73-1.58,7.4-3.3,11-5.17v-17.29c-3.59,2.12-7.26,4.08-11,5.86ZM304.19,81.3c-2.61,3.56-5.07,7.23-7.37,11h18.08c2.68-3.8,5.54-7.47,8.57-11,3.3-3.84,6.8-7.51,10.49-11h-20.97c-3.1,3.54-6.03,7.21-8.8,11Zm193.11,260.4c-3.61,1.38-7.28,2.64-11,3.78v211.12H22V92.3H279.36c2.03-3.75,4.21-7.42,6.5-11,2.42-3.77,4.98-7.44,7.67-11H0v508.3H508.3v-241.54c-3.6,1.68-7.27,3.22-11,4.64Z"/>
    </g>
    <path class="cls-3" d="M551.95,44.8v224.01c0,21.43-7.87,40.93-21.07,55.7-27.61,18.16-60.79,28.7-96.38,28.7-60.3,0-113.58-30.27-145.3-76.41-19.74-28.46-31.24-62.97-31.24-100.14,0-5.69,.24-11.26,.85-16.83,.61-6.78,1.57-13.44,3.03-19.86,10.66-50.86,43.23-93.6,87.42-118.06,17.8-9.81,37.42-16.71,58.36-19.86h.12c8.72-1.33,17.68-2.06,26.76-2.06,13.56,0,26.64,1.57,39.35,4.48,29.55,6.66,56.18,20.71,78.1,40.32Z"/>
    <rect class="cls-2" x="399.23" y="21.93" width="118.74" height="118.74" rx="1.44" ry="1.44"/>
    <rect class="cls-2" x="399.23" y="158.07" width="118.74" height="118.74" rx="1.44" ry="1.44"/>
    <path class="cls-2" d="M611.04,176.67c0,61.88-31.85,116.36-80.16,147.85-27.61,18.16-60.79,28.7-96.38,28.7-60.3,0-113.58-30.27-145.3-76.41-19.74-28.46-31.24-62.97-31.24-100.14,0-5.69,.24-11.26,.85-16.83,.61-6.78,1.57-13.44,3.03-19.86,10.66-50.86,43.23-93.6,87.42-118.06,17.8-9.81,37.42-16.71,58.36-19.86h.12c8.72-1.33,17.68-2.06,26.76-2.06,13.56,0,26.64,1.57,39.35,4.48,29.55,6.66,56.18,20.71,78.1,40.32,36.2,32.33,59.09,79.43,59.09,131.86Z"/>
    <g>
      <path class="cls-2" d="M541.86,56.08c-20.29-18.15-44.95-30.89-71.38-36.84-11.9-2.73-24-4.11-35.98-4.11-8.05,0-16.28,.64-24.48,1.89l-1.17,.16c-18.24,2.87-35.82,8.92-52.26,17.98-16.67,9.22-31.37,21.16-43.6,35.14-3.1,3.54-6.03,7.21-8.8,11-2.61,3.56-5.07,7.23-7.37,11-9.51,15.55-16.4,32.76-20.23,51.02-1.23,5.42-2.14,11.43-2.74,18.15-.51,4.7-.76,9.68-.76,15.2,0,32.95,9.87,64.6,28.57,91.56,30.08,43.73,79.73,69.84,132.84,69.84,17.81,0,35.27-2.89,51.8-8.49,3.72-1.26,7.39-2.66,11-4.2,3.73-1.58,7.4-3.3,11-5.17,4.9-2.53,9.68-5.33,14.32-8.38,45.89-29.9,73.28-80.43,73.28-135.16,0-45.97-19.69-89.92-54.04-120.59Zm-44.56,252.7c-3.6,1.74-7.27,3.31-11,4.73-16.38,6.21-33.89,9.43-51.8,9.43-48.12,0-93.11-23.66-120.43-63.39-16.91-24.37-25.85-53.04-25.85-82.88,0-4.98,.22-9.41,.73-14.14,.52-5.77,1.32-11.11,2.51-16.35,4.1-19.58,12.15-37.86,23.44-53.88,2.68-3.8,5.54-7.47,8.57-11,3.3-3.84,6.8-7.51,10.49-11h174.34v232.62c-3.59,2.12-7.26,4.08-11,5.86Z"/>
      <path class="cls-4" d="M541.86,56.08c-20.29-18.15-44.95-30.89-71.38-36.84-11.9-2.73-24-4.11-35.98-4.11-8.05,0-16.28,.64-24.48,1.89l-1.17,.16c-18.24,2.87-35.82,8.92-52.26,17.98-16.67,9.22-31.37,21.16-43.6,35.14-3.1,3.54-6.03,7.21-8.8,11-2.61,3.56-5.07,7.23-7.37,11-9.51,15.55-16.4,32.76-20.23,51.02-1.23,5.42-2.14,11.43-2.74,18.15-.51,4.7-.76,9.68-.76,15.2,0,32.95,9.87,64.6,28.57,91.56,30.08,43.73,79.73,69.84,132.84,69.84,17.81,0,35.27-2.89,51.8-8.49,3.72-1.26,7.39-2.66,11-4.2,3.73-1.58,7.4-3.3,11-5.17,4.9-2.53,9.68-5.33,14.32-8.38,45.89-29.9,73.28-80.43,73.28-135.16,0-45.97-19.69-89.92-54.04-120.59Zm-27.62,243.14c-1.95,1.29-3.93,2.52-5.94,3.7-3.59,2.12-7.26,4.08-11,5.86-3.6,1.74-7.27,3.31-11,4.73-16.38,6.21-33.89,9.43-51.8,9.43-48.12,0-93.11-23.66-120.43-63.39-16.91-24.37-25.85-53.04-25.85-82.88,0-4.98,.22-9.41,.73-14.14,.52-5.77,1.32-11.11,2.51-16.35,4.1-19.58,12.15-37.86,23.44-53.88,2.68-3.8,5.54-7.47,8.57-11,3.3-3.84,6.8-7.51,10.49-11,8.91-8.43,18.93-15.8,29.9-21.87,14.57-8.03,30.07-13.44,46.13-16.1h.05l2.27-.35c7.43-1.13,14.9-1.71,22.19-1.71,10.99,0,21.66,1.22,32.69,3.74,23.89,5.38,46.21,16.91,64.6,33.37,31.13,27.8,48.98,67.63,48.98,109.29,0,49.59-24.83,95.38-66.53,122.55Z"/>
    </g>
    <path class="cls-3" d="M535.97,178.64v-4.08c0-1.64,1.33-2.98,2.98-2.98h25.87c-2.58-67.66-56.53-122.01-124.02-125.24v31.85c0,1.64-1.33,2.98-2.98,2.98h-4.08c-1.64,0-2.98-1.33-2.98-2.98v-31.98c-68.69,1.95-123.97,56.85-126.58,125.37h29.6c1.64,0,2.98,1.33,2.98,2.98v4.08c0,1.64-1.33,2.98-2.98,2.98h-29.6c2.61,68.52,57.9,123.42,126.58,125.37v-27.2c0-1.64,1.33-2.98,2.98-2.98h4.08c1.64,0,2.98,1.33,2.98,2.98v27.07c67.49-3.23,121.44-57.57,124.02-125.24h-25.87c-1.64,0-2.98-1.33-2.98-2.98Z"/>
    <path class="cls-1" d="M497.3,239.13s-33.93-50.6-47.49-68.88l45.18-56.17s-68.75,46.09-75,52.34c0,0-1.17,8.74,4.54,14.45,1.16,1.16,2.37,1.91,3.56,2.6l69.19,55.66Z"/>
    <line class="cls-5" x1="100.86" y1="481.32" x2="407.44" y2="481.32"/>
    <line class="cls-5" x1="100.86" y1="409.7" x2="407.44" y2="409.7"/>
    <line class="cls-5" x1="100.86" y1="338.9" x2="333.96" y2="338.9"/>
    <line class="cls-5" x1="100.86" y1="268.23" x2="257.95" y2="268.23"/>
    <line class="cls-5" x1="100.86" y1="196.62" x2="234.74" y2="196.62"/>
  </g>
</svg>