<svg width="26" height="26" viewBox="0 0 26 26" fill="none" xmlns="http://www.w3.org/2000/svg">
<mask id="path-1-inside-1_874_60" fill="white">
<path d="M8.125 14.625H14.625V16.25H8.125V14.625ZM8.125 10.5625H17.875V12.1875H8.125V10.5625ZM8.125 18.6875H12.1875V20.3125H8.125V18.6875Z"/>
</mask>
<path d="M8.125 14.625H14.625V16.25H8.125V14.625ZM8.125 10.5625H17.875V12.1875H8.125V10.5625ZM8.125 18.6875H12.1875V20.3125H8.125V18.6875Z" fill="#012970"/>
<path d="M8.125 14.625V12.625H6.125V14.625H8.125ZM14.625 14.625H16.625V12.625H14.625V14.625ZM14.625 16.25V18.25H16.625V16.25H14.625ZM8.125 16.25H6.125V18.25H8.125V16.25ZM8.125 10.5625V8.5625H6.125V10.5625H8.125ZM17.875 10.5625H19.875V8.5625H17.875V10.5625ZM17.875 12.1875V14.1875H19.875V12.1875H17.875ZM8.125 12.1875H6.125V14.1875H8.125V12.1875ZM8.125 18.6875V16.6875H6.125V18.6875H8.125ZM12.1875 18.6875H14.1875V16.6875H12.1875V18.6875ZM12.1875 20.3125V22.3125H14.1875V20.3125H12.1875ZM8.125 20.3125H6.125V22.3125H8.125V20.3125ZM8.125 16.625H14.625V12.625H8.125V16.625ZM12.625 14.625V16.25H16.625V14.625H12.625ZM14.625 14.25H8.125V18.25H14.625V14.25ZM10.125 16.25V14.625H6.125V16.25H10.125ZM8.125 12.5625H17.875V8.5625H8.125V12.5625ZM15.875 10.5625V12.1875H19.875V10.5625H15.875ZM17.875 10.1875H8.125V14.1875H17.875V10.1875ZM10.125 12.1875V10.5625H6.125V12.1875H10.125ZM8.125 20.6875H12.1875V16.6875H8.125V20.6875ZM10.1875 18.6875V20.3125H14.1875V18.6875H10.1875ZM12.1875 18.3125H8.125V22.3125H12.1875V18.3125ZM10.125 20.3125V18.6875H6.125V20.3125H10.125Z" fill="#012970" mask="url(#path-1-inside-1_874_60)"/>
<mask id="path-3-inside-2_874_60" fill="white">
<path d="M20.3125 4.0625H17.875V3.25C17.875 2.81902 17.7038 2.4057 17.399 2.10095C17.0943 1.7962 16.681 1.625 16.25 1.625H9.75C9.31902 1.625 8.9057 1.7962 8.60095 2.10095C8.29621 2.4057 8.125 2.81902 8.125 3.25V4.0625H5.6875C5.25652 4.0625 4.8432 4.2337 4.53845 4.53845C4.2337 4.8432 4.0625 5.25652 4.0625 5.6875V22.75C4.0625 23.181 4.2337 23.5943 4.53845 23.899C4.8432 24.2038 5.25652 24.375 5.6875 24.375H20.3125C20.7435 24.375 21.1568 24.2038 21.4615 23.899C21.7663 23.5943 21.9375 23.181 21.9375 22.75V5.6875C21.9375 5.25652 21.7663 4.8432 21.4615 4.53845C21.1568 4.2337 20.7435 4.0625 20.3125 4.0625ZM9.75 3.25H16.25V6.5H9.75V3.25ZM20.3125 22.75H5.6875V5.6875H8.125V8.125H17.875V5.6875H20.3125V22.75Z"/>
</mask>
<path d="M20.3125 4.0625H17.875V3.25C17.875 2.81902 17.7038 2.4057 17.399 2.10095C17.0943 1.7962 16.681 1.625 16.25 1.625H9.75C9.31902 1.625 8.9057 1.7962 8.60095 2.10095C8.29621 2.4057 8.125 2.81902 8.125 3.25V4.0625H5.6875C5.25652 4.0625 4.8432 4.2337 4.53845 4.53845C4.2337 4.8432 4.0625 5.25652 4.0625 5.6875V22.75C4.0625 23.181 4.2337 23.5943 4.53845 23.899C4.8432 24.2038 5.25652 24.375 5.6875 24.375H20.3125C20.7435 24.375 21.1568 24.2038 21.4615 23.899C21.7663 23.5943 21.9375 23.181 21.9375 22.75V5.6875C21.9375 5.25652 21.7663 4.8432 21.4615 4.53845C21.1568 4.2337 20.7435 4.0625 20.3125 4.0625ZM9.75 3.25H16.25V6.5H9.75V3.25ZM20.3125 22.75H5.6875V5.6875H8.125V8.125H17.875V5.6875H20.3125V22.75Z" fill="#012970"/>
<path d="M20.3125 4.0625V2.0625V4.0625ZM17.875 4.0625H15.875V6.0625H17.875V4.0625ZM16.25 1.625V-0.375V1.625ZM9.75 1.625V-0.375V1.625ZM8.125 4.0625V6.0625H10.125V4.0625H8.125ZM5.6875 4.0625V2.0625V4.0625ZM4.0625 5.6875H2.0625H4.0625ZM4.0625 22.75H2.0625H4.0625ZM9.75 3.25V1.25H7.75V3.25H9.75ZM16.25 3.25H18.25V1.25H16.25V3.25ZM16.25 6.5V8.5H18.25V6.5H16.25ZM9.75 6.5H7.75V8.5H9.75V6.5ZM20.3125 22.75V24.75H22.3125V22.75H20.3125ZM5.6875 22.75H3.6875V24.75H5.6875V22.75ZM5.6875 5.6875V3.6875H3.6875V5.6875H5.6875ZM8.125 5.6875H10.125V3.6875H8.125V5.6875ZM8.125 8.125H6.125V10.125H8.125V8.125ZM17.875 8.125V10.125H19.875V8.125H17.875ZM17.875 5.6875V3.6875H15.875V5.6875H17.875ZM20.3125 5.6875H22.3125V3.6875H20.3125V5.6875ZM20.3125 2.0625H17.875V6.0625H20.3125V2.0625ZM19.875 4.0625V3.25H15.875V4.0625H19.875ZM19.875 3.25C19.875 2.28859 19.4931 1.36656 18.8133 0.686738L15.9848 3.51516C15.9145 3.44484 15.875 3.34946 15.875 3.25H19.875ZM18.8133 0.686738C18.1334 0.00691855 17.2114 -0.375 16.25 -0.375V3.625C16.1505 3.625 16.0552 3.58549 15.9848 3.51516L18.8133 0.686738ZM16.25 -0.375H9.75V3.625H16.25V-0.375ZM9.75 -0.375C8.78859 -0.375 7.86656 0.00691855 7.18674 0.686738L10.0152 3.51516C9.94484 3.58549 9.84946 3.625 9.75 3.625V-0.375ZM7.18674 0.686738C6.50692 1.36656 6.125 2.28859 6.125 3.25H10.125C10.125 3.34946 10.0855 3.44484 10.0152 3.51516L7.18674 0.686738ZM6.125 3.25V4.0625H10.125V3.25H6.125ZM8.125 2.0625H5.6875V6.0625H8.125V2.0625ZM5.6875 2.0625C4.72609 2.0625 3.80406 2.44442 3.12424 3.12424L5.95266 5.95266C5.88234 6.02299 5.78696 6.0625 5.6875 6.0625V2.0625ZM3.12424 3.12424C2.44442 3.80406 2.0625 4.72609 2.0625 5.6875H6.0625C6.0625 5.78696 6.02299 5.88234 5.95266 5.95266L3.12424 3.12424ZM2.0625 5.6875V22.75H6.0625V5.6875H2.0625ZM2.0625 22.75C2.0625 23.7114 2.44442 24.6334 3.12424 25.3133L5.95266 22.4848C6.02299 22.5552 6.0625 22.6505 6.0625 22.75H2.0625ZM3.12424 25.3133C3.80406 25.9931 4.72609 26.375 5.6875 26.375V22.375C5.78696 22.375 5.88234 22.4145 5.95266 22.4848L3.12424 25.3133ZM5.6875 26.375H20.3125V22.375H5.6875V26.375ZM20.3125 26.375C21.2739 26.375 22.1959 25.9931 22.8758 25.3133L20.0473 22.4848C20.1177 22.4145 20.213 22.375 20.3125 22.375V26.375ZM22.8758 25.3133C23.5556 24.6334 23.9375 23.7114 23.9375 22.75H19.9375C19.9375 22.6505 19.977 22.5552 20.0473 22.4848L22.8758 25.3133ZM23.9375 22.75V5.6875H19.9375V22.75H23.9375ZM23.9375 5.6875C23.9375 4.72609 23.5556 3.80406 22.8758 3.12424L20.0473 5.95266C19.977 5.88234 19.9375 5.78696 19.9375 5.6875H23.9375ZM22.8758 3.12424C22.1959 2.44442 21.2739 2.0625 20.3125 2.0625V6.0625C20.213 6.0625 20.1177 6.02299 20.0473 5.95266L22.8758 3.12424ZM9.75 5.25H16.25V1.25H9.75V5.25ZM14.25 3.25V6.5H18.25V3.25H14.25ZM16.25 4.5H9.75V8.5H16.25V4.5ZM11.75 6.5V3.25H7.75V6.5H11.75ZM20.3125 20.75H5.6875V24.75H20.3125V20.75ZM7.6875 22.75V5.6875H3.6875V22.75H7.6875ZM5.6875 7.6875H8.125V3.6875H5.6875V7.6875ZM6.125 5.6875V8.125H10.125V5.6875H6.125ZM8.125 10.125H17.875V6.125H8.125V10.125ZM19.875 8.125V5.6875H15.875V8.125H19.875ZM17.875 7.6875H20.3125V3.6875H17.875V7.6875ZM18.3125 5.6875V22.75H22.3125V5.6875H18.3125Z" fill="#012970" mask="url(#path-3-inside-2_874_60)"/>
</svg>
