<?xml version="1.0" encoding="UTF-8"?>
<svg id="Layer_2" data-name="Layer 2" xmlns="http://www.w3.org/2000/svg" viewBox="0 0 1050.56 817.96">
  <defs>
    <style>
      .cls-1 {
        fill: #f4f4f4;
      }

      .cls-2 {
        fill: #fff;
      }

      .cls-3 {
        fill: #1d9bf0;
      }

      .cls-4 {
        fill: #49403f;
      }
    </style>
  </defs>
  <g id="Layer_1-2" data-name="Layer 1">
    <path class="cls-3" d="M985.17,476.65v247.91c0,23.72-8.71,45.29-23.32,61.64-30.55,20.1-67.27,31.76-106.67,31.76-66.73,0-125.7-33.5-160.8-84.56-21.84-31.49-34.57-69.68-34.57-110.82,0-6.3,.27-12.46,.94-18.63,.67-7.5,1.74-14.87,3.35-21.98,11.79-56.28,47.84-103.58,96.75-130.65,19.7-10.85,41.41-18.49,64.59-21.98h.13c9.65-1.47,19.56-2.28,29.62-2.28,15.01,0,29.48,1.74,43.55,4.96,32.7,7.37,62.18,22.91,86.43,44.62Z"/>
    <path class="cls-3" d="M985.17,273.23v151.42c-11.79-7.91-24.39-14.74-37.65-20.37-28.41-11.93-59.63-18.63-92.33-18.63-13.27,0-26.27,1.07-39,3.22-11.93,1.88-23.45,4.82-34.71,8.58-24.39,7.91-47.04,19.7-67.14,34.57-8.04,6.03-15.68,12.33-22.78,19.3-16.35,15.41-30.28,33.23-41.54,52.8-19.97,34.57-31.49,74.51-31.76,117.12v1.34c0,81.21,40.87,152.76,103.05,195.38H207.15c-51.59,0-93.4-41.81-93.4-93.4V273.23H985.17Z"/>
    <path class="cls-4" d="M165.6,165.36l85.49,107.87H113.74v-53.07c14.87-20.37,32.03-39.26,51.86-54.81Z"/>
    <path class="cls-4" d="M113.74,200.47v-29.21c0-51.59,41.81-93.4,93.4-93.4h86.03l-52.4,150.35-64.32-81.61c-14.47,9.25-38.32,26.53-62.71,53.87Z"/>
    <path class="cls-4" d="M985.17,171.26v101.98H251.1l62.45-195.38H891.9c51.46,0,93.27,41.81,93.27,93.4Z"/>
    <rect class="cls-2" x="320.74" y="300.68" width="131.41" height="131.41" rx="1.44" ry="1.44"/>
    <rect class="cls-2" x="486.84" y="300.68" width="131.41" height="131.41" rx="1.44" ry="1.44"/>
    <path class="cls-2" d="M781.48,319.87v77.59c-24.39,7.91-47.04,19.7-67.14,34.57h-45.03c-10.72,0-19.3-8.58-19.3-19.16v-93c0-10.59,8.58-19.16,19.3-19.16h92.86c10.72,0,19.3,8.58,19.3,19.16Z"/>
    <path class="cls-2" d="M855.19,427.07c15.01,0,29.48,1.74,43.55,4.96h-63.38c-3.62,0-6.97-.94-9.78-2.68,9.65-1.47,19.56-2.28,29.62-2.28Z"/>
    <path class="cls-2" d="M947.52,319.87v84.42c-28.41-11.93-59.63-18.63-92.33-18.63-13.27,0-26.27,1.07-39,3.22v-69.01c0-10.59,8.58-19.16,19.16-19.16h93c10.59,0,19.16,8.58,19.16,19.16Z"/>
    <rect class="cls-2" x="320.74" y="451.34" width="131.41" height="131.41" rx="1.44" ry="1.44"/>
    <rect class="cls-2" x="486.84" y="451.34" width="131.41" height="131.41" rx="1.44" ry="1.44"/>
    <path class="cls-2" d="M691.57,451.32c-16.35,15.41-30.28,33.23-41.54,52.8v-33.5c0-10.72,8.58-19.3,19.3-19.3h22.24Z"/>
    <path class="cls-2" d="M781.48,470.62v92.86c0,10.59-8.58,19.3-19.3,19.3h-92.86c-1.88,0-3.62-.27-5.23-.8,11.79-56.28,47.84-103.58,96.75-130.65h1.34c10.72,0,19.3,8.58,19.3,19.3Z"/>
    <rect class="cls-2" x="816.15" y="451.34" width="131.41" height="131.41" rx="1.44" ry="1.44"/>
    <rect class="cls-2" x="320.74" y="602" width="131.41" height="131.41" rx="1.44" ry="1.44"/>
    <rect class="cls-2" x="151.41" y="451.34" width="131.41" height="131.41" rx="1.44" ry="1.44"/>
    <rect class="cls-2" x="151.41" y="602" width="131.41" height="131.41" rx="1.44" ry="1.44"/>
    <path class="cls-2" d="M618.27,621.24v93c0,10.59-8.58,19.16-19.3,19.16h-92.86c-10.72,0-19.3-8.58-19.3-19.16v-93c0-10.59,8.58-19.3,19.3-19.3h92.86c10.72,0,19.3,8.71,19.3,19.3Z"/>
    <path class="cls-2" d="M781.48,621.24v93c0,10.59-8.58,19.16-19.3,19.16h-67.81c-21.84-31.49-34.57-69.68-34.57-110.82,0-6.3,.27-12.46,.94-18.63,2.55-1.34,5.49-2.01,8.58-2.01h92.86c10.72,0,19.3,8.71,19.3,19.3Z"/>
    <rect class="cls-2" x="816.15" y="602" width="131.41" height="131.41" rx="1.44" ry="1.44"/>
    <path class="cls-2" d="M1050.56,622.58c0,68.48-35.24,128.78-88.71,163.62-30.55,20.1-67.27,31.76-106.67,31.76-66.73,0-125.7-33.5-160.8-84.56-21.84-31.49-34.57-69.68-34.57-110.82,0-6.3,.27-12.46,.94-18.63,.67-7.5,1.74-14.87,3.35-21.98,11.79-56.28,47.84-103.58,96.75-130.65,19.7-10.85,41.41-18.49,64.59-21.98h.13c9.65-1.47,19.56-2.28,29.62-2.28,15.01,0,29.48,1.74,43.55,4.96,32.7,7.37,62.18,22.91,86.43,44.62,40.07,35.78,65.39,87.91,65.39,145.93Z"/>
    <g>
      <path class="cls-2" d="M855.19,801.21c-58.77,0-113.72-28.89-147-77.29-20.7-29.84-31.62-64.86-31.62-101.33,0-6.11,.27-11.61,.84-16.82,.67-7.43,1.68-14.08,3.04-20.08,10.67-50.93,42.92-94.46,88.53-119.7,18.2-10.03,37.66-16.72,57.83-19.9l1.3-.18c9.08-1.39,18.19-2.09,27.1-2.09,13.26,0,26.65,1.52,39.82,4.54,29.25,6.59,56.55,20.68,79,40.77,38.02,33.95,59.81,82.59,59.81,133.45,0,60.57-30.32,116.49-81.1,149.58-28.89,19.01-62.6,29.04-97.52,29.04Z"/>
      <path class="cls-4" d="M855.19,460.57c12.17,0,23.97,1.35,36.18,4.14,26.43,5.96,51.14,18.72,71.49,36.93,34.45,30.76,54.21,74.84,54.21,120.94,0,54.89-27.48,105.56-73.62,135.63-26.1,17.17-56.62,26.25-88.25,26.25-53.25,0-103.04-26.18-133.28-70.15-18.71-26.97-28.6-58.69-28.6-91.73,0-5.5,.24-10.41,.81-15.65,.57-6.38,1.46-12.29,2.77-18.09,9.62-45.89,38.84-85.33,80.13-108.18,16.12-8.88,33.28-14.87,51.05-17.82h.05l2.52-.38c8.22-1.26,16.48-1.89,24.55-1.89m0-33.5c-10.05,0-19.97,.8-29.62,2.28h-.13c-23.18,3.48-44.89,11.12-64.59,21.98-48.91,27.07-84.96,74.37-96.75,130.65-1.61,7.1-2.68,14.47-3.35,21.98-.67,6.16-.94,12.33-.94,18.63,0,41.14,12.73,79.33,34.57,110.82,35.11,51.06,94.07,84.56,160.8,84.56,39.4,0,76.11-11.66,106.67-31.76,53.47-34.84,88.71-95.14,88.71-163.62,0-58.02-25.33-110.15-65.39-145.93-24.25-21.71-53.74-37.25-86.43-44.62-14.07-3.22-28.54-4.96-43.55-4.96h0Z"/>
    </g>
    <path class="cls-3" d="M967.48,624.77v-4.51c0-1.82,1.47-3.29,3.29-3.29h28.63c-2.85-74.88-62.55-135.02-137.25-138.6v35.24c0,1.82-1.48,3.29-3.29,3.29h-4.51c-1.82,0-3.29-1.48-3.29-3.29v-35.39c-76.01,2.15-137.2,62.91-140.09,138.74h32.76c1.82,0,3.29,1.47,3.29,3.29v4.51c0,1.82-1.47,3.29-3.29,3.29h-32.76c2.89,75.83,64.07,136.58,140.09,138.74v-30.11c0-1.82,1.47-3.29,3.29-3.29h4.51c1.82,0,3.29,1.47,3.29,3.29v29.96c74.69-3.57,134.4-63.72,137.25-138.6h-28.63c-1.82,0-3.29-1.47-3.29-3.29Z"/>
    <path class="cls-1" d="M924.69,691.71s-37.55-56-52.55-76.23l50-62.17s-76.08,51.01-83,57.92c0,0-1.3,9.67,5.03,15.99,1.28,1.28,2.62,2.11,3.94,2.88l76.58,61.59Z"/>
    <path class="cls-2" d="M320.24,0l-27.07,77.86-52.4,150.35-64.32-81.61c-14.47,9.25-38.32,26.53-62.71,53.87-34.44,38.32-70.22,95.95-84.02,178.22,0,0-110.02-149.68,93.27-299.9L60.95,0H320.24Z"/>
    <path class="cls-4" d="M320.24,0l-27.07,77.86-52.4,150.35-64.32-81.61c-14.47,9.25-38.32,26.53-62.71,53.87-34.44,38.32-70.22,95.95-84.02,178.22,0,0-110.02-149.68,93.27-299.9L60.95,0H320.24Z"/>
  </g>
</svg>