<svg width="26" height="26" viewBox="0 0 26 26" fill="none" xmlns="http://www.w3.org/2000/svg">
<path d="M23.1349 5.34422L13.3849 2.09422C13.1352 2.00993 12.8648 2.00993 12.6151 2.09422L2.86506 5.34422C2.63241 5.42127 2.4284 5.56667 2.27965 5.76144C2.1309 5.95621 2.04433 6.1913 2.03123 6.43602C2.03012 6.45733 2.03012 6.47869 2.03123 6.5V14.625C2.03123 14.9482 2.15963 15.2582 2.38819 15.4868C2.61675 15.7153 2.92675 15.8438 3.24998 15.8438C3.57321 15.8438 3.88321 15.7153 4.11177 15.4868C4.34033 15.2582 4.46873 14.9482 4.46873 14.625V8.19102L6.87678 8.99336C6.12944 10.4239 5.90735 12.0711 6.24917 13.6485C6.59099 15.2258 7.47507 16.6334 8.74756 17.6262C7.08236 18.4473 5.67308 19.7077 4.67185 21.2713C4.58169 21.4053 4.51906 21.5559 4.48761 21.7143C4.45616 21.8727 4.45651 22.0358 4.48865 22.1941C4.52078 22.3524 4.58406 22.5027 4.6748 22.6363C4.76554 22.7699 4.88194 22.8842 5.01722 22.9724C5.1525 23.0606 5.30398 23.1211 5.46284 23.1503C5.62169 23.1795 5.78477 23.1768 5.94258 23.1424C6.10039 23.108 6.24979 23.0426 6.38209 22.9499C6.5144 22.8573 6.62697 22.7393 6.71326 22.6027C8.16256 20.3724 10.4609 19.0938 13 19.0938C15.539 19.0938 17.8374 20.3724 19.2918 22.6027C19.3781 22.7393 19.4906 22.8573 19.6229 22.9499C19.7552 23.0426 19.9046 23.108 20.0625 23.1424C20.2203 23.1768 20.3833 23.1795 20.5422 23.1503C20.7011 23.1211 20.8525 23.0606 20.9878 22.9724C21.1231 22.8842 21.2395 22.7699 21.3302 22.6363C21.421 22.5027 21.4843 22.3524 21.5164 22.1941C21.5485 22.0358 21.5489 21.8727 21.5174 21.7143C21.486 21.5559 21.4233 21.4053 21.3332 21.2713C20.331 19.7059 18.9198 18.4443 17.2524 17.6231C18.5249 16.6303 19.409 15.2228 19.7508 13.6454C20.0926 12.0681 19.8705 10.4208 19.1232 8.99031L23.1349 7.65274C23.3773 7.57165 23.588 7.41643 23.7373 7.20902C23.8866 7.00162 23.967 6.75252 23.967 6.49696C23.967 6.24139 23.8866 5.99229 23.7373 5.78489C23.588 5.57748 23.3773 5.42226 23.1349 5.34117V5.34422ZM13 4.53172L18.8957 6.5L13 8.46524L7.10935 6.5L13 4.53172ZM17.4687 12.1875C17.4689 12.8816 17.3073 13.5662 16.9968 14.187C16.6864 14.8078 16.2356 15.3478 15.6802 15.7641C15.1248 16.1804 14.48 16.4616 13.7971 16.5854C13.1141 16.7092 12.4116 16.6722 11.7454 16.4774C11.0792 16.2825 10.4676 15.9351 9.95899 15.4628C9.45038 14.9905 9.05879 14.4061 8.81527 13.7561C8.57176 13.1061 8.483 12.4084 8.55604 11.7181C8.62908 11.0278 8.86191 10.3641 9.23607 9.77946L12.6151 10.9058C12.8648 10.9898 13.1352 10.9898 13.3849 10.9058L16.7639 9.77946C17.2248 10.498 17.4694 11.3339 17.4687 12.1875Z" fill="#012970"/>
</svg>
