<svg width="26" height="26" viewBox="0 0 26 26" fill="none" xmlns="http://www.w3.org/2000/svg">
<path d="M18.9583 4.875C16.8458 4.875 14.5708 5.30833 13 6.5C11.4292 5.30833 9.15416 4.875 7.04166 4.875C5.47083 4.875 3.8025 5.11333 2.40499 5.73083C1.61416 6.08833 1.08333 6.8575 1.08333 7.735V19.955C1.08333 21.3633 2.40499 22.4033 3.76999 22.0567C4.83166 21.7858 5.95833 21.6667 7.04166 21.6667C8.73166 21.6667 10.53 21.9483 11.9817 22.6633C12.6317 22.9883 13.3683 22.9883 14.0075 22.6633C15.4592 21.9375 17.2575 21.6667 18.9475 21.6667C20.0308 21.6667 21.1575 21.7858 22.2192 22.0567C23.5842 22.4142 24.9058 21.3742 24.9058 19.955V7.735C24.9058 6.8575 24.375 6.08833 23.5842 5.73083C22.1975 5.11333 20.5292 4.875 18.9583 4.875ZM22.75 18.6658C22.75 19.3483 22.1217 19.8467 21.45 19.7275C20.6375 19.5758 19.7925 19.5108 18.9583 19.5108C17.1167 19.5108 14.4625 20.215 13 21.1358V8.66667C14.4625 7.74583 17.1167 7.04167 18.9583 7.04167C19.955 7.04167 20.9408 7.13917 21.8833 7.345C22.3817 7.45333 22.75 7.8975 22.75 8.40667V18.6658Z" fill="#012970"/>
<path d="M15.145 11.9275C14.7983 11.9275 14.4842 11.7108 14.3758 11.3642C14.235 10.9417 14.4733 10.4758 14.8958 10.3458C16.5642 9.80417 18.72 9.63084 20.7025 9.85834C21.1467 9.91251 21.4717 10.3133 21.4175 10.7575C21.3633 11.2017 20.9625 11.5267 20.5183 11.4725C18.7633 11.2667 16.8458 11.4292 15.3942 11.895C15.3075 11.9058 15.2208 11.9275 15.145 11.9275ZM15.145 14.8092C14.7983 14.8092 14.4842 14.5925 14.3758 14.2458C14.235 13.8233 14.4733 13.3575 14.8958 13.2275C16.5533 12.6858 18.72 12.5125 20.7025 12.74C21.1467 12.7942 21.4717 13.195 21.4175 13.6392C21.3633 14.0833 20.9625 14.4083 20.5183 14.3542C18.7633 14.1483 16.8458 14.3108 15.3942 14.7767C15.3127 14.7974 15.2291 14.8083 15.145 14.8092ZM15.145 17.6908C14.7983 17.6908 14.4842 17.4742 14.3758 17.1275C14.235 16.705 14.4733 16.2392 14.8958 16.1092C16.5533 15.5675 18.72 15.3942 20.7025 15.6217C21.1467 15.6758 21.4717 16.0767 21.4175 16.5208C21.3633 16.965 20.9625 17.2792 20.5183 17.2358C18.7633 17.03 16.8458 17.1925 15.3942 17.6583C15.3127 17.6791 15.2291 17.69 15.145 17.6908Z" fill="#012970"/>
</svg>
